<svg width="366" height="77" viewBox="0 0 366 77" fill="none" xmlns="http://www.w3.org/2000/svg">
<path d="M2.7259 41C2.7259 45.268 1.09262 48.0569 2.7259 52C4.35918 55.9431 7.3468 58.4892 10.3647 61.5071C13.3826 64.5251 17.9216 62.3477 21.8647 63.981C25.8078 65.6143 33.732 77.0001 38 77.0001C42.268 77.0001 40.2829 68.6334 44.2259 67.0001C48.169 65.3669 52.8468 61.018 55.8647 58.0001C58.8826 54.9822 62.8667 55.9431 64.5 52C66.1333 48.0569 66 45.268 66 41L35.2259 41L2.7259 41Z" fill="url(#paint0_linear_8_35)"/>
<rect y="30" width="68" height="10" rx="5" fill="url(#paint1_radial_8_35)"/>
<path d="M67 29C67 25.0708 66.1594 22.1006 64.5261 18.4705C62.8928 14.8404 60.4989 11.5419 57.481 8.76356C54.4631 5.98517 50.8803 3.78123 46.9372 2.27758C42.9941 0.773927 38.768 6.63264e-06 34.5 6.80439e-06C30.232 6.97614e-06 26.0059 0.773927 22.0628 2.27758C18.1197 3.78123 14.5369 5.98517 11.519 8.76356C8.50112 11.5419 6.10719 14.8404 4.47391 18.4705C2.84064 22.1006 2 25.0708 2 29L34.5 29H67Z" fill="url(#paint2_radial_8_35)"/>
<mask id="mask0_8_35" style="mask-type:alpha" maskUnits="userSpaceOnUse" x="2" y="0" width="65" height="32">
<path d="M67 31.5C67 27.232 66.1594 24.0059 64.5261 20.0628C62.8928 16.1197 60.4989 12.5369 57.481 9.51904C54.4631 6.50113 50.8803 4.1072 46.9372 2.47392C42.9941 0.840644 38.768 7.20442e-06 34.5 7.39098e-06C30.232 7.57753e-06 26.0059 0.840645 22.0628 2.47392C18.1197 4.1072 14.5369 6.50113 11.519 9.51904C8.50112 12.5369 6.10719 16.1197 4.47391 20.0628C2.84064 24.0059 2 27.232 2 31.5L34.5 31.5H67Z" fill="#BE570C"/>
</mask>
<g mask="url(#mask0_8_35)">
<path d="M43.5 19.0261C42.0854 7.6761 41.395 2.29401 37.6988 -5.06127L41.1124 -6.90539C44.8992 3.78056 44.5196 8.82877 43.5 19.0261Z" fill="#CF8A20"/>
<path d="M43.5 19.0261C42.0854 7.6761 40.4356 2.29401 36.7393 -5.06127L40.153 -6.90539C43.9398 3.78057 44.5196 8.82877 43.5 19.0261Z" fill="#D59535"/>
<path d="M27.5 18.5261C26.0855 7.17611 25.4356 2.72551 21.7394 -4.62977L25.153 -6.47389C28.9398 4.21206 28.5196 8.32878 27.5 18.5261Z" fill="#CF8A20"/>
<path d="M27.5 18.5261C26.0854 7.17608 24.4356 2.72548 20.7393 -4.62979L24.153 -6.47392C27.9398 4.21204 28.5196 8.32875 27.5 18.5261Z" fill="#D49535"/>
</g>
<path d="M92.688 26.664V49H88.208V26.664H92.688ZM95.9622 40.136C95.9622 38.3013 96.3356 36.7013 97.0823 35.336C97.8289 33.9493 98.8636 32.8827 100.186 32.136C101.509 31.368 103.024 30.984 104.73 30.984C106.928 30.984 108.741 31.5387 110.17 32.648C111.621 33.736 112.592 35.272 113.082 37.256H108.25C107.994 36.488 107.557 35.8907 106.938 35.464C106.341 35.016 105.594 34.792 104.698 34.792C103.418 34.792 102.405 35.2613 101.658 36.2C100.912 37.1173 100.538 38.4293 100.538 40.136C100.538 41.8213 100.912 43.1333 101.658 44.072C102.405 44.9893 103.418 45.448 104.698 45.448C106.512 45.448 107.696 44.6373 108.25 43.016H113.082C112.592 44.936 111.621 46.4613 110.17 47.592C108.72 48.7227 106.906 49.288 104.73 49.288C103.024 49.288 101.509 48.9147 100.186 48.168C98.8636 47.4 97.8289 46.3333 97.0823 44.968C96.3356 43.5813 95.9622 41.9707 95.9622 40.136ZM132.844 39.752C132.844 40.392 132.802 40.968 132.716 41.48H119.756C119.863 42.76 120.311 43.7627 121.1 44.488C121.89 45.2133 122.86 45.576 124.012 45.576C125.676 45.576 126.86 44.8613 127.564 43.432H132.396C131.884 45.1387 130.903 46.5467 129.452 47.656C128.002 48.744 126.22 49.288 124.108 49.288C122.402 49.288 120.866 48.9147 119.5 48.168C118.156 47.4 117.1 46.3227 116.332 44.936C115.586 43.5493 115.212 41.9493 115.212 40.136C115.212 38.3013 115.586 36.6907 116.332 35.304C117.079 33.9173 118.124 32.8507 119.468 32.104C120.812 31.3573 122.359 30.984 124.108 30.984C125.794 30.984 127.298 31.3467 128.62 32.072C129.964 32.7973 130.999 33.832 131.724 35.176C132.471 36.4987 132.844 38.024 132.844 39.752ZM128.204 38.472C128.183 37.32 127.767 36.4027 126.956 35.72C126.146 35.016 125.154 34.664 123.98 34.664C122.871 34.664 121.932 35.0053 121.164 35.688C120.418 36.3493 119.959 37.2773 119.788 38.472H128.204ZM140.594 33.864C141.17 33.0107 141.96 32.3173 142.962 31.784C143.986 31.2507 145.149 30.984 146.45 30.984C147.965 30.984 149.33 31.3573 150.546 32.104C151.784 32.8507 152.754 33.9173 153.458 35.304C154.184 36.6693 154.546 38.2587 154.546 40.072C154.546 41.8853 154.184 43.496 153.458 44.904C152.754 46.2907 151.784 47.368 150.546 48.136C149.33 48.904 147.965 49.288 146.45 49.288C145.128 49.288 143.965 49.032 142.962 48.52C141.981 47.9867 141.192 47.304 140.594 46.472V49H136.114V25.32H140.594V33.864ZM149.97 40.072C149.97 39.0053 149.746 38.088 149.298 37.32C148.872 36.5307 148.296 35.9333 147.57 35.528C146.866 35.1227 146.098 34.92 145.266 34.92C144.456 34.92 143.688 35.1333 142.962 35.56C142.258 35.9653 141.682 36.5627 141.234 37.352C140.808 38.1413 140.594 39.0693 140.594 40.136C140.594 41.2027 140.808 42.1307 141.234 42.92C141.682 43.7093 142.258 44.3173 142.962 44.744C143.688 45.1493 144.456 45.352 145.266 45.352C146.098 45.352 146.866 45.1387 147.57 44.712C148.296 44.2853 148.872 43.6773 149.298 42.888C149.746 42.0987 149.97 41.16 149.97 40.072ZM174.282 39.752C174.282 40.392 174.239 40.968 174.154 41.48H161.194C161.3 42.76 161.748 43.7627 162.538 44.488C163.327 45.2133 164.298 45.576 165.45 45.576C167.114 45.576 168.298 44.8613 169.002 43.432H173.834C173.322 45.1387 172.34 46.5467 170.89 47.656C169.439 48.744 167.658 49.288 165.546 49.288C163.839 49.288 162.303 48.9147 160.938 48.168C159.594 47.4 158.538 46.3227 157.77 44.936C157.023 43.5493 156.65 41.9493 156.65 40.136C156.65 38.3013 157.023 36.6907 157.77 35.304C158.516 33.9173 159.562 32.8507 160.906 32.104C162.25 31.3573 163.796 30.984 165.546 30.984C167.231 30.984 168.735 31.3467 170.058 32.072C171.402 32.7973 172.436 33.832 173.162 35.176C173.908 36.4987 174.282 38.024 174.282 39.752ZM169.642 38.472C169.62 37.32 169.204 36.4027 168.394 35.72C167.583 35.016 166.591 34.664 165.418 34.664C164.308 34.664 163.37 35.0053 162.602 35.688C161.855 36.3493 161.396 37.2773 161.226 38.472H169.642ZM182.032 34.024C182.608 33.0853 183.354 32.3493 184.272 31.816C185.21 31.2827 186.277 31.016 187.472 31.016V35.72H186.288C184.88 35.72 183.813 36.0507 183.088 36.712C182.384 37.3733 182.032 38.5253 182.032 40.168V49H177.552V31.272H182.032V34.024ZM197.433 30.984C198.756 30.984 199.919 31.2507 200.921 31.784C201.924 32.296 202.713 32.968 203.289 33.8V31.272H207.801V49.128C207.801 50.7707 207.471 52.232 206.809 53.512C206.148 54.8133 205.156 55.8373 203.833 56.584C202.511 57.352 200.911 57.736 199.033 57.736C196.516 57.736 194.447 57.1493 192.825 55.976C191.225 54.8027 190.319 53.2027 190.105 51.176H194.553C194.788 51.9867 195.289 52.6267 196.057 53.096C196.847 53.5867 197.796 53.832 198.905 53.832C200.207 53.832 201.263 53.4373 202.073 52.648C202.884 51.88 203.289 50.7067 203.289 49.128V46.376C202.713 47.208 201.913 47.9013 200.889 48.456C199.887 49.0107 198.735 49.288 197.433 49.288C195.94 49.288 194.575 48.904 193.337 48.136C192.1 47.368 191.119 46.2907 190.393 44.904C189.689 43.496 189.337 41.8853 189.337 40.072C189.337 38.28 189.689 36.6907 190.393 35.304C191.119 33.9173 192.089 32.8507 193.305 32.104C194.543 31.3573 195.919 30.984 197.433 30.984ZM203.289 40.136C203.289 39.048 203.076 38.12 202.649 37.352C202.223 36.5627 201.647 35.9653 200.921 35.56C200.196 35.1333 199.417 34.92 198.585 34.92C197.753 34.92 196.985 35.1227 196.281 35.528C195.577 35.9333 195.001 36.5307 194.553 37.32C194.127 38.088 193.913 39.0053 193.913 40.072C193.913 41.1387 194.127 42.0773 194.553 42.888C195.001 43.6773 195.577 44.2853 196.281 44.712C197.007 45.1387 197.775 45.352 198.585 45.352C199.417 45.352 200.196 45.1493 200.921 44.744C201.647 44.3173 202.223 43.72 202.649 42.952C203.076 42.1627 203.289 41.224 203.289 40.136ZM232.474 37.544C233.732 37.7787 234.767 38.408 235.578 39.432C236.388 40.456 236.794 41.6293 236.794 42.952C236.794 44.1467 236.495 45.2027 235.898 46.12C235.322 47.016 234.479 47.72 233.37 48.232C232.26 48.744 230.948 49 229.434 49H219.802V26.664H229.018C230.532 26.664 231.834 26.9093 232.922 27.4C234.031 27.8907 234.863 28.5733 235.418 29.448C235.994 30.3227 236.282 31.3147 236.282 32.424C236.282 33.7253 235.93 34.8133 235.226 35.688C234.543 36.5627 233.626 37.1813 232.474 37.544ZM224.282 35.88H228.378C229.444 35.88 230.266 35.6453 230.842 35.176C231.418 34.6853 231.706 33.992 231.706 33.096C231.706 32.2 231.418 31.5067 230.842 31.016C230.266 30.5253 229.444 30.28 228.378 30.28H224.282V35.88ZM228.794 45.352C229.882 45.352 230.724 45.096 231.322 44.584C231.94 44.072 232.25 43.3467 232.25 42.408C232.25 41.448 231.93 40.7013 231.29 40.168C230.65 39.6133 229.786 39.336 228.698 39.336H224.282V45.352H228.794ZM257.1 31.272V49H252.588V46.76C252.012 47.528 251.255 48.136 250.316 48.584C249.399 49.0107 248.396 49.224 247.308 49.224C245.922 49.224 244.695 48.936 243.628 48.36C242.562 47.7627 241.719 46.8987 241.1 45.768C240.503 44.616 240.204 43.2507 240.204 41.672V31.272H244.684V41.032C244.684 42.44 245.036 43.528 245.74 44.296C246.444 45.0427 247.404 45.416 248.62 45.416C249.858 45.416 250.828 45.0427 251.532 44.296C252.236 43.528 252.588 42.44 252.588 41.032V31.272H257.1ZM266.001 34.024C266.577 33.0853 267.323 32.3493 268.241 31.816C269.179 31.2827 270.246 31.016 271.441 31.016V35.72H270.257C268.849 35.72 267.782 36.0507 267.057 36.712C266.353 37.3733 266.001 38.5253 266.001 40.168V49H261.521V31.272H266.001V34.024ZM281.402 30.984C282.725 30.984 283.887 31.2507 284.89 31.784C285.893 32.296 286.682 32.968 287.258 33.8V31.272H291.77V49.128C291.77 50.7707 291.439 52.232 290.778 53.512C290.117 54.8133 289.125 55.8373 287.802 56.584C286.479 57.352 284.879 57.736 283.002 57.736C280.485 57.736 278.415 57.1493 276.794 55.976C275.194 54.8027 274.287 53.2027 274.074 51.176H278.522C278.757 51.9867 279.258 52.6267 280.026 53.096C280.815 53.5867 281.765 53.832 282.874 53.832C284.175 53.832 285.231 53.4373 286.042 52.648C286.853 51.88 287.258 50.7067 287.258 49.128V46.376C286.682 47.208 285.882 47.9013 284.858 48.456C283.855 49.0107 282.703 49.288 281.402 49.288C279.909 49.288 278.543 48.904 277.306 48.136C276.069 47.368 275.087 46.2907 274.362 44.904C273.658 43.496 273.306 41.8853 273.306 40.072C273.306 38.28 273.658 36.6907 274.362 35.304C275.087 33.9173 276.058 32.8507 277.274 32.104C278.511 31.3573 279.887 30.984 281.402 30.984ZM287.258 40.136C287.258 39.048 287.045 38.12 286.618 37.352C286.191 36.5627 285.615 35.9653 284.89 35.56C284.165 35.1333 283.386 34.92 282.554 34.92C281.722 34.92 280.954 35.1227 280.25 35.528C279.546 35.9333 278.97 36.5307 278.522 37.32C278.095 38.088 277.882 39.0053 277.882 40.072C277.882 41.1387 278.095 42.0773 278.522 42.888C278.97 43.6773 279.546 44.2853 280.25 44.712C280.975 45.1387 281.743 45.352 282.554 45.352C283.386 45.352 284.165 45.1493 284.89 44.744C285.615 44.3173 286.191 43.72 286.618 42.952C287.045 42.1627 287.258 41.224 287.258 40.136ZM312.882 31.272V49H308.37V46.76C307.794 47.528 307.036 48.136 306.098 48.584C305.18 49.0107 304.178 49.224 303.09 49.224C301.703 49.224 300.476 48.936 299.41 48.36C298.343 47.7627 297.5 46.8987 296.882 45.768C296.284 44.616 295.986 43.2507 295.986 41.672V31.272H300.466V41.032C300.466 42.44 300.818 43.528 301.522 44.296C302.226 45.0427 303.186 45.416 304.402 45.416C305.639 45.416 306.61 45.0427 307.314 44.296C308.018 43.528 308.37 42.44 308.37 41.032V31.272H312.882ZM333.782 39.752C333.782 40.392 333.739 40.968 333.654 41.48H320.694C320.8 42.76 321.248 43.7627 322.038 44.488C322.827 45.2133 323.798 45.576 324.95 45.576C326.614 45.576 327.798 44.8613 328.502 43.432H333.334C332.822 45.1387 331.84 46.5467 330.39 47.656C328.939 48.744 327.158 49.288 325.046 49.288C323.339 49.288 321.803 48.9147 320.438 48.168C319.094 47.4 318.038 46.3227 317.27 44.936C316.523 43.5493 316.15 41.9493 316.15 40.136C316.15 38.3013 316.523 36.6907 317.27 35.304C318.016 33.9173 319.062 32.8507 320.406 32.104C321.75 31.3573 323.296 30.984 325.046 30.984C326.731 30.984 328.235 31.3467 329.558 32.072C330.902 32.7973 331.936 33.832 332.662 35.176C333.408 36.4987 333.782 38.024 333.782 39.752ZM329.142 38.472C329.12 37.32 328.704 36.4027 327.894 35.72C327.083 35.016 326.091 34.664 324.918 34.664C323.808 34.664 322.87 35.0053 322.102 35.688C321.355 36.3493 320.896 37.2773 320.726 38.472H329.142ZM341.532 34.024C342.108 33.0853 342.854 32.3493 343.772 31.816C344.71 31.2827 345.777 31.016 346.972 31.016V35.72H345.788C344.38 35.72 343.313 36.0507 342.588 36.712C341.884 37.3733 341.532 38.5253 341.532 40.168V49H337.052V31.272H341.532V34.024ZM356.773 49.288C355.323 49.288 354.021 49.032 352.869 48.52C351.717 47.9867 350.8 47.272 350.117 46.376C349.456 45.48 349.093 44.488 349.029 43.4H353.541C353.627 44.0827 353.957 44.648 354.533 45.096C355.131 45.544 355.867 45.768 356.741 45.768C357.595 45.768 358.256 45.5973 358.725 45.256C359.216 44.9147 359.461 44.4773 359.461 43.944C359.461 43.368 359.163 42.9413 358.565 42.664C357.989 42.3653 357.061 42.0453 355.781 41.704C354.459 41.384 353.371 41.0533 352.517 40.712C351.685 40.3707 350.96 39.848 350.341 39.144C349.744 38.44 349.445 37.4907 349.445 36.296C349.445 35.3147 349.723 34.4187 350.277 33.608C350.853 32.7973 351.664 32.1573 352.709 31.688C353.776 31.2187 355.024 30.984 356.453 30.984C358.565 30.984 360.251 31.5173 361.509 32.584C362.768 33.6293 363.461 35.048 363.589 36.84H359.301C359.237 36.136 358.939 35.5813 358.405 35.176C357.893 34.7493 357.2 34.536 356.325 34.536C355.515 34.536 354.885 34.6853 354.437 34.984C354.011 35.2827 353.797 35.6987 353.797 36.232C353.797 36.8293 354.096 37.288 354.693 37.608C355.291 37.9067 356.219 38.216 357.477 38.536C358.757 38.856 359.813 39.1867 360.645 39.528C361.477 39.8693 362.192 40.4027 362.789 41.128C363.408 41.832 363.728 42.7707 363.749 43.944C363.749 44.968 363.461 45.8853 362.885 46.696C362.331 47.5067 361.52 48.1467 360.453 48.616C359.408 49.064 358.181 49.288 356.773 49.288Z" fill="#3C3C3C"/>
<defs>
<linearGradient id="paint0_linear_8_35" x1="39" y1="85" x2="35" y2="40" gradientUnits="userSpaceOnUse">
<stop stop-color="#CF7C00"/>
<stop offset="1" stop-color="#EDAA46"/>
</linearGradient>
<radialGradient id="paint1_radial_8_35" cx="0" cy="0" r="1" gradientUnits="userSpaceOnUse" gradientTransform="translate(34 35) rotate(90) scale(15.5 105.4)">
<stop stop-color="#77400C"/>
<stop offset="0.685483" stop-color="#412001"/>
</radialGradient>
<radialGradient id="paint2_radial_8_35" cx="0" cy="0" r="1" gradientUnits="userSpaceOnUse" gradientTransform="translate(34 2.78593) rotate(86.5467) scale(41.5039 92.9746)">
<stop stop-color="#EDAA46"/>
<stop offset="1" stop-color="#D68710"/>
</radialGradient>
</defs>
</svg>
